<svg xmlns="http://www.w3.org/2000/svg" viewBox="0 0 32 32">
  <defs>
    <style>
      .icon {
        fill: "#fff",
        stroke: "#fff",
        stroke-width: 3,
        stroke-linejoin: "round",
        opacity: 1
      }
    </style>
  </defs>
  <path class="icon" d="M10.758,24.469V12.086H6.643v12.382H10.758L10.758,24.469z,M8.701,10.397c1.436,0,2.329-0.953,2.329-2.141c-0.027-1.214-0.894-2.139-2.302-2.139S6.4,7.042,6.4,8.256c0,1.188,0.894,2.141,2.274,2.141H8.701L8.701,10.397z,M13.036,24.469h4.115v-6.914c0-0.37,0.028-0.741,0.137-1.005c0.296-0.74,0.974-1.506,2.112-1.506c1.488,0,2.084,1.136,2.084,2.801v6.624H25.6v-7.1c0-3.803-2.031-5.573-4.738-5.573c-2.221,0-3.195,1.24-3.737,2.086h0.027v-1.796h-4.115C13.09,13.248,13.036,24.469,13.036,24.469L13.036,24.469z"/>
</svg>
